<svg xmlns="http://www.w3.org/2000/svg" xmlns:xlink="http://www.w3.org/1999/xlink" width="2000" zoomAndPan="magnify" viewBox="0 0 1500 1499.999933" height="2000" preserveAspectRatio="xMidYMid meet" version="1.0"><defs><clipPath id="25d108bd27"><path d="M 316 544 L 1156 544 L 1156 1081.929688 L 316 1081.929688 Z M 316 544 " clip-rule="nonzero"/></clipPath><clipPath id="41e290d409"><path d="M 376 339.429688 L 1060 339.429688 L 1060 877 L 376 877 Z M 376 339.429688 " clip-rule="nonzero"/></clipPath></defs><rect x="-150" width="1800" fill="#ffffff" y="-149.999993" height="1799.99992" fill-opacity="1"/><rect x="-150" width="1800" fill="#ffffff" y="-149.999993" height="1799.99992" fill-opacity="1"/><g clip-path="url(#25d108bd27)"><path fill="#12647e" d="M 355.875 544.480469 L 573.222656 544.480469 C 571.03125 545.996094 568.867188 547.554688 566.730469 549.15625 C 564.597656 550.757812 562.5 552.402344 560.429688 554.085938 C 558.363281 555.769531 556.328125 557.496094 554.328125 559.261719 C 552.328125 561.027344 550.367188 562.832031 548.4375 564.671875 C 546.507812 566.515625 544.617188 568.398438 542.765625 570.316406 C 540.910156 572.234375 539.097656 574.1875 537.320312 576.179688 C 535.542969 578.167969 533.808594 580.191406 532.113281 582.25 C 530.417969 584.308594 528.761719 586.402344 527.148438 588.527344 C 525.539062 590.652344 523.96875 592.804688 522.441406 594.992188 C 520.914062 597.179688 519.429688 599.394531 517.988281 601.640625 C 516.550781 603.886719 515.15625 606.160156 513.804688 608.460938 C 512.457031 610.761719 511.152344 613.089844 509.894531 615.441406 C 508.640625 617.792969 507.429688 620.171875 506.265625 622.570312 C 505.105469 624.972656 503.988281 627.394531 502.921875 629.839844 C 501.855469 632.285156 500.835938 634.75 499.867188 637.234375 C 498.898438 639.71875 497.980469 642.222656 497.109375 644.742188 C 496.238281 647.265625 495.421875 649.800781 494.652344 652.355469 C 493.882812 654.910156 493.164062 657.480469 492.496094 660.0625 C 491.828125 662.644531 491.210938 665.238281 490.648438 667.84375 C 490.082031 670.453125 489.570312 673.070312 489.109375 675.695312 C 488.648438 678.324219 488.242188 680.960938 487.882812 683.601562 C 487.527344 686.246094 487.222656 688.894531 486.972656 691.550781 C 486.722656 694.207031 486.523438 696.867188 486.378906 699.527344 C 486.230469 702.191406 486.136719 704.859375 486.097656 707.523438 C 486.058594 710.191406 486.070312 712.859375 486.136719 715.523438 C 486.203125 718.191406 486.320312 720.855469 486.492188 723.519531 C 486.664062 726.179688 486.886719 728.835938 487.164062 731.488281 C 487.441406 734.144531 487.769531 736.789062 488.152344 739.429688 C 488.53125 742.070312 488.964844 744.699219 489.453125 747.324219 C 489.9375 749.945312 490.476562 752.558594 491.066406 755.160156 C 491.652344 757.761719 492.292969 760.347656 492.988281 762.925781 C 493.679688 765.5 494.421875 768.0625 495.214844 770.609375 C 496.007812 773.15625 496.851562 775.683594 497.746094 778.199219 C 498.640625 780.710938 499.582031 783.207031 500.578125 785.683594 C 501.570312 788.15625 502.609375 790.613281 503.699219 793.046875 C 504.789062 795.480469 505.929688 797.894531 507.113281 800.28125 C 508.300781 802.671875 509.53125 805.035156 510.8125 807.378906 C 512.09375 809.71875 513.417969 812.03125 514.789062 814.320312 C 516.160156 816.605469 517.578125 818.867188 519.035156 821.097656 C 520.496094 823.332031 522.003906 825.53125 523.550781 827.703125 C 525.097656 829.875 526.6875 832.015625 528.324219 834.125 C 529.957031 836.234375 531.628906 838.3125 533.34375 840.351562 C 535.058594 842.394531 536.816406 844.402344 538.609375 846.375 C 540.40625 848.351562 542.238281 850.285156 544.109375 852.1875 C 545.980469 854.085938 547.890625 855.949219 549.835938 857.773438 C 551.78125 859.597656 553.761719 861.382812 555.78125 863.128906 C 557.796875 864.875 559.847656 866.582031 561.929688 868.246094 C 564.015625 869.910156 566.128906 871.535156 568.277344 873.117188 C 570.425781 874.695312 572.605469 876.234375 574.816406 877.730469 C 577.023438 879.222656 579.261719 880.671875 581.527344 882.078125 C 583.796875 883.484375 586.089844 884.84375 588.410156 886.160156 C 590.730469 887.476562 593.078125 888.742188 595.449219 889.964844 C 597.820312 891.1875 600.214844 892.363281 602.632812 893.488281 C 605.046875 894.617188 607.488281 895.695312 609.949219 896.722656 C 612.410156 897.753906 614.886719 898.734375 617.386719 899.667969 C 619.886719 900.601562 622.402344 901.480469 624.9375 902.3125 C 627.472656 903.144531 630.019531 903.925781 632.585938 904.660156 C 635.152344 905.390625 637.730469 906.070312 640.324219 906.699219 C 642.914062 907.328125 645.519531 907.902344 648.132812 908.429688 C 650.75 908.957031 653.375 909.429688 656.007812 909.851562 C 658.640625 910.273438 661.28125 910.640625 663.929688 910.957031 C 666.578125 911.273438 669.234375 911.539062 671.890625 911.75 C 674.550781 911.960938 677.210938 912.121094 679.878906 912.226562 C 682.542969 912.332031 685.210938 912.386719 687.875 912.386719 L 999.421875 912.386719 L 999.121094 912.835938 C 1001.753906 913.03125 1004.382812 913.285156 1007.003906 913.605469 C 1009.625 913.921875 1012.238281 914.300781 1014.84375 914.742188 C 1017.449219 915.183594 1020.042969 915.683594 1022.625 916.246094 C 1025.203125 916.808594 1027.769531 917.429688 1030.324219 918.109375 C 1032.875 918.792969 1035.410156 919.53125 1037.925781 920.332031 C 1040.445312 921.132812 1042.941406 921.992188 1045.417969 922.910156 C 1047.894531 923.828125 1050.351562 924.800781 1052.78125 925.832031 C 1055.214844 926.863281 1057.621094 927.953125 1060 929.097656 C 1062.382812 930.242188 1064.734375 931.441406 1067.058594 932.695312 C 1069.382812 933.949219 1071.675781 935.257812 1073.941406 936.621094 C 1076.203125 937.984375 1078.433594 939.398438 1080.632812 940.863281 C 1082.828125 942.328125 1084.988281 943.847656 1087.117188 945.414062 C 1089.242188 946.980469 1091.332031 948.597656 1093.382812 950.261719 C 1095.433594 951.929688 1097.441406 953.640625 1099.414062 955.398438 C 1101.382812 957.160156 1103.3125 958.964844 1105.199219 960.8125 C 1107.082031 962.664062 1108.925781 964.554688 1110.722656 966.492188 C 1112.519531 968.425781 1114.273438 970.402344 1115.976562 972.421875 C 1117.683594 974.4375 1119.339844 976.492188 1120.949219 978.589844 C 1122.554688 980.683594 1124.113281 982.816406 1125.625 984.984375 C 1127.132812 987.152344 1128.589844 989.355469 1129.996094 991.589844 C 1131.402344 993.828125 1132.757812 996.09375 1134.054688 998.394531 C 1135.355469 1000.691406 1136.601562 1003.023438 1137.792969 1005.378906 C 1138.984375 1007.738281 1140.117188 1010.121094 1141.199219 1012.53125 C 1142.277344 1014.945312 1143.300781 1017.378906 1144.265625 1019.835938 C 1145.230469 1022.296875 1146.136719 1024.777344 1146.988281 1027.277344 C 1147.835938 1029.777344 1148.628906 1032.296875 1149.359375 1034.835938 C 1150.089844 1037.375 1150.761719 1039.929688 1151.375 1042.496094 C 1151.988281 1045.066406 1152.539062 1047.648438 1153.03125 1050.246094 C 1153.519531 1052.839844 1153.953125 1055.445312 1154.320312 1058.0625 C 1154.691406 1060.675781 1155 1063.300781 1155.246094 1065.929688 C 1155.492188 1068.558594 1155.675781 1071.195312 1155.800781 1073.832031 C 1155.921875 1076.472656 1155.984375 1079.113281 1155.984375 1081.753906 L 687.875 1081.753906 C 680.007812 1081.75 672.148438 1081.496094 664.292969 1080.992188 C 656.441406 1080.488281 648.613281 1079.738281 640.808594 1078.738281 C 633.003906 1077.734375 625.238281 1076.488281 617.511719 1074.992188 C 609.789062 1073.5 602.117188 1071.761719 594.503906 1069.777344 C 586.886719 1067.796875 579.34375 1065.574219 571.871094 1063.113281 C 564.394531 1060.648438 557.007812 1057.953125 549.707031 1055.019531 C 542.402344 1052.089844 535.203125 1048.929688 528.101562 1045.539062 C 521 1042.148438 514.011719 1038.539062 507.140625 1034.707031 C 500.269531 1030.871094 493.527344 1026.824219 486.914062 1022.5625 C 480.296875 1018.300781 473.824219 1013.832031 467.496094 1009.15625 C 461.164062 1004.484375 454.988281 999.613281 448.96875 994.546875 C 442.949219 989.480469 437.09375 984.230469 431.40625 978.789062 C 425.722656 973.351562 420.210938 967.738281 414.882812 961.949219 C 409.550781 956.160156 404.410156 950.210938 399.460938 944.09375 C 394.507812 937.976562 389.757812 931.710938 385.203125 925.292969 C 380.648438 918.875 376.304688 912.320312 372.167969 905.628906 C 368.03125 898.933594 364.113281 892.113281 360.410156 885.171875 C 356.707031 878.230469 353.230469 871.175781 349.972656 864.011719 C 346.71875 856.847656 343.695312 849.585938 340.902344 842.230469 C 338.109375 834.875 335.554688 827.4375 333.234375 819.917969 C 330.914062 812.398438 328.835938 804.8125 326.996094 797.164062 C 325.160156 789.511719 323.566406 781.808594 322.21875 774.058594 C 320.867188 766.304688 319.769531 758.519531 318.914062 750.695312 C 318.0625 742.875 317.457031 735.03125 317.101562 727.171875 C 316.75 719.3125 316.644531 711.445312 316.789062 703.578125 C 316.933594 695.710938 317.328125 687.855469 317.972656 680.015625 C 318.617188 672.171875 319.511719 664.359375 320.652344 656.574219 C 321.792969 648.789062 323.183594 641.046875 324.816406 633.347656 C 326.449219 625.652344 328.324219 618.015625 330.445312 610.4375 C 332.5625 602.859375 334.921875 595.355469 337.515625 587.925781 C 340.113281 580.5 342.941406 573.160156 346.003906 565.914062 C 349.066406 558.664062 352.355469 551.519531 355.875 544.480469 Z M 355.875 544.480469 " fill-opacity="1" fill-rule="evenodd"/></g><g clip-path="url(#41e290d409)"><path fill="#12647e" d="M 687.875 339.429688 C 695.746094 339.429688 703.605469 339.683594 711.457031 340.1875 C 719.3125 340.691406 727.140625 341.441406 734.945312 342.441406 C 742.75 343.441406 750.515625 344.6875 758.238281 346.183594 C 765.964844 347.675781 773.636719 349.414062 781.25 351.398438 C 788.863281 353.378906 796.410156 355.601562 803.882812 358.0625 C 811.355469 360.523438 818.746094 363.21875 826.046875 366.152344 C 833.347656 369.082031 840.550781 372.242188 847.652344 375.632812 C 854.753906 379.019531 861.742188 382.632812 868.613281 386.464844 C 875.484375 390.296875 882.226562 394.34375 888.839844 398.605469 C 895.457031 402.871094 901.929688 407.335938 908.257812 412.011719 C 914.589844 416.683594 920.765625 421.554688 926.785156 426.621094 C 932.804688 431.6875 938.660156 436.9375 944.347656 442.375 C 950.035156 447.8125 955.542969 453.425781 960.871094 459.214844 C 966.203125 465.003906 971.34375 470.957031 976.292969 477.070312 C 981.246094 483.1875 986 489.453125 990.550781 495.871094 C 995.105469 502.289062 999.449219 508.84375 1003.585938 515.539062 C 1007.722656 522.230469 1011.640625 529.050781 1015.34375 535.992188 C 1019.046875 542.933594 1022.527344 549.988281 1025.78125 557.152344 C 1029.035156 564.316406 1032.058594 571.578125 1034.851562 578.933594 C 1037.644531 586.289062 1040.203125 593.726562 1042.523438 601.246094 C 1044.84375 608.765625 1046.921875 616.347656 1048.757812 624 C 1050.597656 631.652344 1052.1875 639.351562 1053.539062 647.105469 C 1054.886719 654.855469 1055.984375 662.644531 1056.839844 670.464844 C 1057.691406 678.289062 1058.296875 686.128906 1058.652344 693.992188 C 1059.003906 701.851562 1059.109375 709.714844 1058.964844 717.582031 C 1058.820312 725.449219 1058.421875 733.304688 1057.777344 741.148438 C 1057.132812 748.988281 1056.242188 756.804688 1055.097656 764.589844 C 1053.957031 772.375 1052.570312 780.113281 1050.9375 787.8125 C 1049.300781 795.507812 1047.425781 803.144531 1045.304688 810.722656 C 1043.1875 818.300781 1040.828125 825.804688 1038.234375 833.234375 C 1035.636719 840.660156 1032.804688 848 1029.742188 855.246094 C 1026.679688 862.496094 1023.390625 869.636719 1019.875 876.675781 L 802.535156 876.675781 C 804.730469 875.160156 806.894531 873.601562 809.027344 872 C 811.160156 870.398438 813.261719 868.757812 815.328125 867.070312 C 817.398438 865.386719 819.429688 863.664062 821.429688 861.898438 C 823.429688 860.132812 825.394531 858.328125 827.320312 856.484375 C 829.25 854.640625 831.140625 852.761719 832.992188 850.84375 C 834.847656 848.925781 836.664062 846.96875 838.4375 844.980469 C 840.214844 842.988281 841.949219 840.964844 843.644531 838.90625 C 845.34375 836.847656 846.996094 834.757812 848.609375 832.632812 C 850.222656 830.507812 851.792969 828.351562 853.320312 826.164062 C 854.847656 823.976562 856.332031 821.761719 857.769531 819.515625 C 859.210938 817.269531 860.605469 814.996094 861.953125 812.695312 C 863.300781 810.394531 864.605469 808.070312 865.863281 805.714844 C 867.121094 803.363281 868.328125 800.988281 869.492188 798.585938 C 870.65625 796.1875 871.769531 793.761719 872.835938 791.320312 C 873.90625 788.875 874.921875 786.410156 875.890625 783.925781 C 876.859375 781.4375 877.78125 778.933594 878.648438 776.414062 C 879.519531 773.890625 880.339844 771.355469 881.109375 768.800781 C 881.878906 766.246094 882.597656 763.679688 883.261719 761.097656 C 883.929688 758.511719 884.546875 755.917969 885.113281 753.3125 C 885.675781 750.703125 886.1875 748.085938 886.648438 745.460938 C 887.109375 742.832031 887.519531 740.199219 887.875 737.554688 C 888.230469 734.910156 888.535156 732.261719 888.785156 729.605469 C 889.039062 726.949219 889.234375 724.289062 889.382812 721.628906 C 889.527344 718.964844 889.621094 716.296875 889.660156 713.632812 C 889.699219 710.964844 889.6875 708.296875 889.621094 705.632812 C 889.554688 702.964844 889.4375 700.300781 889.265625 697.636719 C 889.09375 694.976562 888.871094 692.320312 888.59375 689.667969 C 888.320312 687.011719 887.988281 684.367188 887.609375 681.726562 C 887.226562 679.085938 886.792969 676.457031 886.308594 673.832031 C 885.820312 671.210938 885.28125 668.597656 884.695312 665.996094 C 884.105469 663.394531 883.464844 660.804688 882.769531 658.230469 C 882.078125 655.65625 881.335938 653.09375 880.542969 650.546875 C 879.75 648 878.90625 645.46875 878.011719 642.957031 C 877.117188 640.445312 876.175781 637.949219 875.179688 635.472656 C 874.1875 632.996094 873.148438 630.542969 872.058594 628.109375 C 870.964844 625.675781 869.828125 623.261719 868.644531 620.871094 C 867.457031 618.484375 866.222656 616.117188 864.945312 613.777344 C 863.664062 611.4375 862.339844 609.125 860.96875 606.835938 C 859.597656 604.546875 858.179688 602.289062 856.71875 600.054688 C 855.257812 597.824219 853.753906 595.621094 852.207031 593.449219 C 850.65625 591.277344 849.066406 589.136719 847.433594 587.03125 C 845.800781 584.921875 844.125 582.84375 842.410156 580.800781 C 840.695312 578.757812 838.941406 576.75 837.144531 574.777344 C 835.351562 572.804688 833.515625 570.867188 831.644531 568.96875 C 829.773438 567.066406 827.863281 565.207031 825.917969 563.382812 C 823.972656 561.554688 821.992188 559.769531 819.976562 558.023438 C 817.960938 556.277344 815.910156 554.574219 813.824219 552.910156 C 811.742188 551.242188 809.625 549.621094 807.476562 548.039062 C 805.328125 546.460938 803.148438 544.921875 800.941406 543.425781 C 798.730469 541.933594 796.492188 540.480469 794.226562 539.078125 C 791.960938 537.671875 789.664062 536.308594 787.34375 534.996094 C 785.023438 533.679688 782.675781 532.414062 780.304688 531.191406 C 777.933594 529.96875 775.542969 528.792969 773.125 527.667969 C 770.707031 526.539062 768.265625 525.460938 765.804688 524.433594 C 763.347656 523.402344 760.867188 522.421875 758.367188 521.488281 C 755.867188 520.558594 753.351562 519.675781 750.816406 518.84375 C 748.28125 518.011719 745.734375 517.230469 743.167969 516.5 C 740.601562 515.765625 738.023438 515.085938 735.429688 514.457031 C 732.839844 513.832031 730.234375 513.253906 727.621094 512.726562 C 725.003906 512.203125 722.378906 511.730469 719.746094 511.308594 C 717.113281 510.886719 714.472656 510.515625 711.824219 510.199219 C 709.175781 509.882812 706.519531 509.621094 703.863281 509.40625 C 701.203125 509.195312 698.539062 509.039062 695.875 508.929688 C 693.210938 508.824219 690.542969 508.773438 687.875 508.773438 L 376.332031 508.773438 C 380.515625 502.304688 384.902344 495.972656 389.484375 489.777344 C 394.0625 483.582031 398.832031 477.535156 403.792969 471.636719 C 408.75 465.742188 413.886719 460.003906 419.203125 454.425781 C 424.519531 448.847656 430.003906 443.441406 435.65625 438.207031 C 441.308594 432.96875 447.117188 427.914062 453.085938 423.042969 C 459.054688 418.167969 465.167969 413.484375 471.425781 408.992188 C 477.6875 404.5 484.082031 400.207031 490.609375 396.113281 C 497.136719 392.019531 503.78125 388.132812 510.550781 384.453125 C 517.320312 380.773438 524.199219 377.308594 531.183594 374.058594 C 538.171875 370.804688 545.25 367.777344 552.425781 364.964844 C 559.597656 362.15625 566.855469 359.574219 574.191406 357.214844 C 581.523438 354.859375 588.925781 352.730469 596.394531 350.835938 C 603.863281 348.9375 611.382812 347.277344 618.953125 345.847656 C 626.523438 344.421875 634.132812 343.230469 641.78125 342.277344 C 649.425781 341.324219 657.09375 340.609375 664.785156 340.132812 C 672.472656 339.660156 680.171875 339.425781 687.875 339.429688 Z M 687.875 339.429688 " fill-opacity="1" fill-rule="evenodd"/></g><path fill="#000000" d="M 1609.757812 1609.757812 L -78.492188 1609.757812 L -78.492188 -78.492188 L 1609.757812 -78.492188 Z M -67.757812 1599.019531 L 1599.019531 1599.019531 L 1599.019531 -67.757812 L -67.757812 -67.757812 Z M -67.757812 1599.019531 " fill-opacity="1" fill-rule="nonzero"/></svg>